<?xml version="1.0" encoding="utf-8"?>
<svg viewBox="7.143 30.345 310 55.174" xmlns="http://www.w3.org/2000/svg" xmlns:bx="https://boxy-svg.com">
  <path d="M 4.272 11.025 H 53.816 L 53.816 10.145 L 57.334 11.904 L 53.816 13.663 L 53.816 12.784 H 4.272 V 11.025 Z" style="fill: rgb(216, 216, 216); stroke: rgb(0, 0, 0);" transform="matrix(0, 1, -1, 0, 21.805553, 27.184605)" bx:shape="arrow 4.272 10.145 53.062 3.518 1.759 3.518 0 1@b49ed7e8"/>
  <text style="white-space: pre; fill: rgb(51, 51, 51); font-family: Arial, sans-serif; font-size: 4.7px;" x="33.595" y="81.252" transform="matrix(0, 1, -1, 0, 93.173256, 18.8043)">TIME</text>
  <g transform="matrix(1, 0, 0, 1, 0, -2.071203)">
    <g transform="matrix(0.351793, 0, 0, 0.351793, 17.401592, 14.726503)" style="">
      <g transform="matrix(1, 0, 0, 1, -6.513059, 1.444443)">
        <rect x="28.627" y="73.207" width="113.385" height="36.442" style="fill: rgb(216, 216, 216); stroke: rgb(0, 0, 0);"/>
        <text style="fill: rgb(51, 51, 51); font-family: Arial, sans-serif; font-size: 13.3px; white-space: pre;"><tspan x="55.754" y="95.93">Process </tspan><tspan style="font-style: italic; font-weight: 700; text-decoration: underline solid rgba(0, 0, 0, 0.85);">0</tspan></text>
      </g>
      <text style="white-space: pre; fill: rgb(51, 51, 51); font-family: Arial, sans-serif; font-size: 13.3px;" x="3.225" y="127.552">comm.send(data, dest=0+1)</text>
    </g>
    <g transform="matrix(0.351793, 0, 0, 0.351793, 1.958032, 32.532032)" style="">
      <g transform="matrix(1, 0, 0, 1, 239.004517, -46.562313)">
        <g transform="matrix(1, 0, 0, 1, -26.357817, 45.977669)">
          <rect x="67.05" y="72.888" width="113.385" height="36.442" style="fill: rgb(216, 216, 216); stroke: rgb(0, 0, 0);"/>
          <text style="fill: rgb(51, 51, 51); font-family: Arial, sans-serif; font-size: 13.3px; white-space: pre;"><tspan x="94.177" y="95.611">Process </tspan><tspan style="font-style: italic; font-weight: 700; text-decoration: underline solid rgba(0, 0, 0, 0.85);">1</tspan></text>
        </g>
      </g>
      <text style="white-space: pre; fill: rgb(51, 51, 51); font-family: Arial, sans-serif; font-size: 13.3px;" x="255.276" y="128.287">data = comm.recv(source=1-1)</text>
    </g>
    <path d="M 48.125 36.004 H 73.043 L 73.043 35.124 L 75.532 36.883 L 73.043 38.642 L 73.043 37.763 H 48.125 V 36.004 Z" style="fill: rgb(216, 216, 216); stroke: rgb(0, 0, 0);" transform="matrix(0.951057, 0.309017, -0.309017, 0.951057, 38.206581, 1.885585)" bx:shape="arrow 48.125 35.124 27.407 3.518 1.759 2.49 0 1@4ad37a2c"/>
    <text style="white-space: pre; fill: rgb(51, 51, 51); font-family: Arial, sans-serif; font-size: 4.7px;" x="82.813" y="35.089" transform="matrix(0.951057, 0.309017, -0.309017, 0.951057, 14.076866, -6.203852)">data</text>
    <text style="white-space: pre; fill: rgb(51, 51, 51); font-family: Arial, sans-serif; font-size: 4.7px;" x="41.73" y="66.237">...</text>
    <text style="white-space: pre; fill: rgb(51, 51, 51); font-family: Arial, sans-serif; font-size: 4.7px;" x="41.759" y="72.575">...</text>
  </g>
  <g transform="matrix(1, 0, 0, 1, 158.648331, -1.358749)">
    <g transform="matrix(0.351793, 0, 0, 0.351793, 17.401592, 14.726503)" style="">
      <g transform="matrix(1, 0, 0, 1, -6.513059, 1.444443)">
        <rect x="28.627" y="73.207" width="113.385" height="36.442" style="fill: rgb(216, 216, 216); stroke: rgb(0, 0, 0);"/>
        <text style="fill: rgb(51, 51, 51); font-family: Arial, sans-serif; font-size: 13.3px; white-space: pre;"><tspan x="55.754" y="95.93">Process 14</tspan></text>
      </g>
      <text style="white-space: pre; fill: rgb(51, 51, 51); font-family: Arial, sans-serif; font-size: 13.3px;" x="3.225" y="127.552">comm.send(data, dest=14+1)</text>
    </g>
    <g transform="matrix(0.351793, 0, 0, 0.351793, 3.88398, 31.544518)" style="">
      <g transform="matrix(1, 0, 0, 1, 239.004517, -46.562313)">
        <g transform="matrix(1, 0, 0, 1, -26.357817, 45.977669)">
          <rect x="67.05" y="72.888" width="113.385" height="36.442" style="fill: rgb(216, 216, 216); stroke: rgb(0, 0, 0);"/>
          <text style="fill: rgb(51, 51, 51); font-family: Arial, sans-serif; font-size: 13.3px; white-space: pre;"><tspan x="94.177" y="95.611">Process 15</tspan></text>
        </g>
      </g>
      <text style="white-space: pre; fill: rgb(51, 51, 51); font-family: Arial, sans-serif; font-size: 13.3px;" x="247.938" y="126.426">data = comm.recv(source=15-1)</text>
    </g>
    <path d="M 68.003 36.004 H 91.991 L 91.991 35.124 L 95.509 36.883 L 91.991 38.642 L 91.991 37.763 H 68.003 V 36.004 Z" style="fill: rgb(216, 216, 216); stroke: rgb(0, 0, 0);" transform="matrix(0.946472, 0.322787, -0.322787, 0.946472, 20.121614, -5.024224)" bx:shape="arrow 68.003 35.124 27.506 3.518 1.759 3.518 0 1@d26a59fd"/>
    <text style="white-space: pre; fill: rgb(51, 51, 51); font-family: Arial, sans-serif; font-size: 4.7px;" x="82.813" y="35.089" transform="matrix(0.951057, 0.309017, -0.309017, 0.951057, 13.717451, -6.188801)">data</text>
    <text style="white-space: pre; fill: rgb(51, 51, 51); font-family: Arial, sans-serif; font-size: 4.7px;" x="41.73" y="66.237">...</text>
    <text style="white-space: pre; fill: rgb(51, 51, 51); font-family: Arial, sans-serif; font-size: 4.7px;" x="41.759" y="72.575">...</text>
  </g>
  <g transform="matrix(1, 0, 0, 1, 174.77359, -9.872551)">
    <text style="white-space: pre; fill: rgb(51, 51, 51); font-family: Arial, sans-serif; font-size: 31.6px;" x="-29.237" y="68.785">...</text>
  </g>
</svg>